<svg width="53" height="66" viewBox="0 0 53 66" fill="none" xmlns="http://www.w3.org/2000/svg">
<mask id="mask0_44_887" style="mask-type:luminance" maskUnits="userSpaceOnUse" x="0" y="0" width="53" height="66">
<path d="M41.7995 0.953758L0 14.6586L11.2001 65.8056L52.9997 52.1008L41.7995 0.953758Z" fill="white"/>
</mask>
<g mask="url(#mask0_44_887)">
<path d="M45.3832 31.8426C45.2763 31.3541 44.8659 31.0638 44.4663 31.1948C44.0668 31.3259 43.8304 31.8282 43.9374 32.3167C45.226 38.2012 43.0041 44.2709 38.6341 47.0226L38.042 44.319C41.521 41.9122 43.3786 36.8433 42.2974 31.906L39.3917 18.6365C38.1098 12.7829 33.1754 9.29651 28.3916 10.865C23.6073 12.4336 20.7587 18.4719 22.0405 24.3255L24.9462 37.5949C26.0274 42.5323 29.7078 45.7853 33.7042 45.7413L34.2961 48.4449C29.3864 48.7358 24.9829 44.8393 23.694 38.9532C23.5871 38.4648 23.1769 38.175 22.7773 38.3061C22.3776 38.437 22.1413 38.9388 22.2482 39.4273C23.7497 46.2837 28.9496 50.7767 34.6911 50.2485L35.1337 52.2697L32.2416 53.218C30.2489 53.8713 29.0614 56.3874 29.5955 58.8263C29.7024 59.3147 30.1126 59.6045 30.5122 59.4735L46.4176 54.2586C46.8172 54.1276 47.0536 53.6258 46.9466 53.1374C46.4126 50.6985 44.3564 49.2459 42.3632 49.8994L39.4716 50.8475L39.0289 48.8257C44.2166 45.7707 46.8842 38.697 45.3832 31.8426ZM26.6222 37.9937L30.201 36.8203C30.6006 36.6894 30.8373 36.187 30.7304 35.6985C30.6234 35.21 30.2132 34.9202 29.8136 35.0512L26.1988 36.2364L25.6177 33.5824L29.2324 32.3972C29.6321 32.2662 29.8688 31.7637 29.7618 31.2753C29.6548 30.7868 29.2446 30.4965 28.8449 30.6276L25.2302 31.8127L24.649 29.1593L28.2638 27.9741C28.6634 27.8431 28.9001 27.3406 28.7932 26.8521C28.6863 26.3636 28.2759 26.0734 27.8763 26.2044L24.2615 27.3896L23.6804 24.7356L27.2952 23.5504C27.6947 23.4195 27.9316 22.9175 27.8246 22.429C27.7176 21.9405 27.3073 21.6503 26.9078 21.7813L23.329 22.9546C22.7155 18.3711 25.037 13.8616 28.7791 12.6346C32.5213 11.4077 36.3745 13.8928 37.7161 18.2376L34.1373 19.411C33.7377 19.5419 33.501 20.0443 33.6079 20.5328C33.7149 21.0213 34.1251 21.3111 34.5247 21.1801L38.1395 19.9949L38.7207 22.6489L35.1058 23.8341C34.7063 23.9651 34.4696 24.4676 34.5765 24.956C34.6835 25.4444 35.0938 25.7348 35.4934 25.6037L39.1082 24.4186L39.6892 27.072L36.0745 28.2572C35.6748 28.3882 35.4381 28.8907 35.5451 29.3792C35.6521 29.8677 36.0623 30.1579 36.462 30.0269L40.0767 28.8417L40.6579 31.4957L37.0432 32.6809C36.6435 32.8118 36.4067 33.3138 36.5137 33.8023C36.6206 34.2908 37.0309 34.581 37.4306 34.45L41.0093 33.2767C41.5502 37.3159 39.8102 41.2958 36.8283 43.0243L36.8271 43.0247C36.4253 43.2573 36.0031 43.4511 35.5592 43.5967C31.8169 44.8236 27.9638 42.3385 26.6222 37.9937ZM42.7507 51.6686C43.6935 51.3595 44.6593 51.8354 45.1834 52.7676L30.9713 57.4273C31.0444 56.2993 31.6867 55.2961 32.629 54.9871L36.2438 53.8019C36.6434 53.6709 36.8803 53.169 36.7733 52.6806L35.2148 45.5634C35.4584 45.5096 35.7026 45.4463 35.9462 45.3664C36.1899 45.2866 36.4272 45.1919 36.6606 45.0894L38.2192 52.2065C38.3261 52.695 38.7362 52.9847 39.1359 52.8537L42.7507 51.6686Z" fill="#8F8953"/>
<path d="M35.3348 8.70339C36.0058 8.72427 36.6324 8.99244 37.1483 9.47873C37.669 9.96988 38.0429 10.6508 38.2281 11.4478C38.3402 11.9297 38.7477 12.2111 39.142 12.0819L39.1531 12.0782C39.5503 11.9399 39.7811 11.4329 39.6679 10.9464C39.3942 9.76936 38.839 8.76053 38.0628 8.02816C37.2933 7.30276 36.3626 6.90319 35.3729 6.87284C34.9605 6.86048 34.6171 7.2601 34.6057 7.76512C34.5953 8.27038 34.9219 8.69066 35.3348 8.70339Z" fill="#8F8953"/>
<path d="M39.8961 5.11466C38.5213 3.81952 36.8079 3.13453 35.0717 3.18565C34.6593 3.19987 34.3319 3.61759 34.342 4.12369C34.3521 4.62929 34.6955 5.02939 35.1083 5.0172C36.5232 4.97485 37.8624 5.51017 38.9821 6.5656C40.0325 7.55585 40.7761 8.91255 41.1336 10.4886C41.2433 10.9735 41.6516 11.2584 42.0483 11.1284L42.0545 11.1263C42.4528 10.9914 42.6864 10.4868 42.576 9.99885C42.1315 8.0379 41.2048 6.34901 39.8961 5.11466Z" fill="#8F8953"/>
<path d="M12.7575 11.5278L11.1982 14.8347C10.9913 15.2726 11.114 15.8329 11.4721 16.0855C11.651 16.2119 11.8549 16.2378 12.0398 16.1772C12.2247 16.1166 12.3911 15.9692 12.4943 15.7504L14.0541 12.4432C14.2606 12.0056 14.1378 11.4453 13.7802 11.1925C13.422 10.9399 12.9645 11.0899 12.7575 11.5278Z" fill="#8F8953"/>
<path d="M9.63727 18.1412L8.07715 21.4485C7.8702 21.8863 7.99281 22.4462 8.35106 22.6993C8.52993 22.8257 8.7338 22.8516 8.9187 22.7909C9.1036 22.7304 9.27004 22.583 9.3733 22.3642L10.9334 19.0569C11.1403 18.6191 11.0178 18.0592 10.6595 17.8061C10.3017 17.5534 9.84423 17.7034 9.63727 18.1412Z" fill="#8F8953"/>
<path d="M7.3864 13.289C7.02867 13.0362 6.57073 13.1865 6.36419 13.6241C6.15735 14.0625 6.27994 14.6224 6.6381 14.8749L9.34056 16.7846C9.51991 16.9109 9.7237 16.9368 9.90869 16.8761C10.0936 16.8155 10.2595 16.6683 10.3628 16.4495C10.5696 16.0111 10.4471 15.4513 10.0889 15.1987L7.3864 13.289Z" fill="#8F8953"/>
<path d="M12.7917 17.1072C12.4336 16.8546 11.9761 17.0046 11.7695 17.4423C11.5626 17.8802 11.6852 18.4405 12.0434 18.6931L14.7451 20.603C14.9244 20.7293 15.1283 20.7552 15.3132 20.6946C15.4981 20.634 15.664 20.4868 15.7677 20.2678C15.9742 19.83 15.8515 19.2697 15.4938 19.017L12.7917 17.1072Z" fill="#8F8953"/>
<path d="M9.90606 39.6814C8.3109 40.2045 7.36161 42.2171 7.78892 44.1685C8.21613 46.1193 9.86067 47.2816 11.4558 46.7585C13.0506 46.2357 13.9999 44.223 13.5726 42.2721C13.1453 40.3208 11.5008 39.1586 9.90606 39.6814ZM11.0684 44.9894C10.2712 45.2508 9.44838 44.6699 9.23475 43.6945C9.02104 42.7184 9.49642 41.7125 10.2936 41.4511C11.0904 41.1898 11.9131 41.7702 12.1268 42.7462C12.3405 43.7217 11.8652 44.7281 11.0684 44.9894Z" fill="#8F8953"/>
<path d="M16.4068 30.4393C16.5672 31.1723 16.2117 31.9258 15.6127 32.1222C15.0137 32.3186 14.3983 31.8834 14.2378 31.1505C14.0772 30.4175 14.4325 29.6647 15.0315 29.4682C15.6306 29.2718 16.2462 29.7064 16.4068 30.4393Z" fill="#8F8953"/>
</g>
</svg>
