<svg width="1440" height="824" viewBox="0 0 1440 824" fill="none" xmlns="http://www.w3.org/2000/svg">
<g filter="url(#filter0_f_99_360)">
<path fill-rule="evenodd" clip-rule="evenodd" d="M1230.02 -443.007C1349.74 -463.864 1384.33 -722.616 1505.2 -716.707C1598.5 -712.145 1639.26 -535.673 1634.03 -423.253C1628.7 -308.78 1473.73 -256.502 1478.43 -141.989C1483.55 -17.3206 1652.96 31.1498 1657.81 155.834C1662.13 266.77 1591.3 440.628 1500.4 422.718C1367.41 396.513 1321.98 190.325 1230.02 71.5441C1208.67 43.973 1196.89 -16.5648 1166.27 -8.84906C1017.16 28.7261 896.536 239.821 749.303 192.68C658.337 163.555 688.225 -56.8284 750.439 -141.989C825.623 -244.904 1014.06 -134.021 1073.43 -251.003C1130.43 -363.297 920.665 -534.337 997.22 -628.207C1063.54 -709.521 1136.41 -426.698 1230.02 -443.007Z" fill="#5CC2FB"/>
<path fill-rule="evenodd" clip-rule="evenodd" d="M755.247 -572.422C800.485 -569.958 856.534 -585.689 886.853 -545.128C919.362 -501.637 887.228 -428.717 903.803 -373.684C916.319 -332.127 954.218 -310.374 969.637 -270.261C991.664 -212.953 1041.58 -143.685 1012.36 -91.2621C982.142 -37.0524 889.461 -113.058 854.309 -63.3628C789.3 28.5412 846.144 221.451 755.247 272.221C684.547 311.71 651.165 135.023 583.857 87.697C516.982 40.6754 395.175 86.8453 367.571 -0.36554C337.777 -94.4897 461.373 -170.123 470.553 -270.261C478.188 -353.54 377.985 -436.182 414.088 -507.771C450.571 -580.114 547.229 -546.701 616.594 -559.846C663.173 -568.673 708.143 -574.987 755.247 -572.422Z" fill="#319FCE"/>
<path fill-rule="evenodd" clip-rule="evenodd" d="M863.153 -1010.01C953.348 -1023.57 1012.14 -894.449 1087.9 -833.907C1158.54 -777.464 1260 -758.18 1294.86 -665.05C1329.91 -571.429 1271.24 -466.805 1263.63 -364.5C1256.81 -272.874 1278.89 -179.799 1252.32 -93.5635C1223.37 0.427917 1184.31 108.04 1106.83 144.443C1028.49 181.252 947.091 95.1279 863.153 89.2893C785.719 83.903 704.794 152.881 635.18 111.635C565.704 70.4701 543.571 -34.6591 511.022 -119.35C480.844 -197.872 462.692 -278.888 452.187 -364.5C440.207 -462.139 401.019 -572.387 445.245 -655.442C489.765 -739.051 601.189 -713.703 668.579 -770.879C745.631 -836.253 769.663 -995.958 863.153 -1010.01Z" fill="#0E1047"/>
<path fill-rule="evenodd" clip-rule="evenodd" d="M779.472 -878.007C874.17 -887.357 956.969 -811.976 1039.54 -755.298C1126.6 -695.545 1243.6 -654.594 1273.13 -539.171C1302.97 -422.513 1196.9 -318.286 1182.24 -197.492C1167.63 -77.1859 1233.99 51.4423 1188.27 159.812C1140.26 273.598 1043.39 388.302 937.642 382.234C825.668 375.81 783.422 189.706 682.529 130.794C606.752 86.547 499.185 159.055 437.373 90.1241C376.113 21.8082 407.976 -101.947 386.608 -199.209C361.511 -313.442 266.341 -420.276 300.948 -530.836C335.138 -640.062 462.441 -646.32 545.402 -706.508C625.248 -764.437 686.598 -868.837 779.472 -878.007Z" fill="#495AF9"/>
<path fill-rule="evenodd" clip-rule="evenodd" d="M656.647 -901.222C761.306 -921.786 883.63 -912.53 962.105 -826.535C1039.76 -741.434 1014.88 -589.269 1050.1 -470.07C1081.32 -364.402 1157.32 -278.816 1157.07 -166.643C1156.8 -48.137 1117.23 71.2926 1048.7 156.236C981.703 239.278 882.943 266.002 788.897 289.707C700.925 311.882 610.651 320.124 524.738 288.306C439.484 256.731 375.232 181.367 307.493 111.414C228.051 29.3762 122.088 -34.2797 94.544 -155.949C66.4354 -280.112 103.698 -418.341 163.414 -525.019C219.215 -624.704 324.807 -653.587 409.099 -717.879C492.631 -781.591 559.094 -882.055 656.647 -901.222Z" fill="#0006B1"/>
<path fill-rule="evenodd" clip-rule="evenodd" d="M553.9 -740.866C616.092 -692.639 605.607 -550.781 676.193 -524.221C793.169 -480.206 937.796 -649.508 1035.15 -559.781C1112.61 -488.399 1074.66 -304.706 1011.2 -215.478C944.714 -122.01 805.322 -190.206 721.838 -119.289C668.809 -74.2415 691.321 34.2984 648.276 92.8133C580.422 185.053 509.179 307.546 406.932 308.789C308.892 309.98 215.892 207.314 177.489 98.5348C140.195 -7.10269 187.758 -125.792 214.621 -235.94C232.479 -309.166 301.058 -354.905 306.615 -430.937C317.03 -573.427 177.072 -744.407 259.318 -847.488C331.868 -938.417 465.887 -809.116 553.9 -740.866Z" fill="#0A0B27"/>
<path fill-rule="evenodd" clip-rule="evenodd" d="M948.165 -576.846C1017.98 -606.766 1061.47 -714.495 1135.55 -716.763C1199.11 -718.709 1262.14 -655.505 1291.27 -587.351C1322.59 -514.051 1310.57 -422.603 1295.62 -342.141C1283.11 -274.797 1182.96 -222.217 1212.42 -163.046C1269.96 -47.4655 1460.79 -76.0736 1492.44 53.2175C1513.7 140.039 1372.57 181.814 1297.54 184.619C1209.18 187.922 1138.76 46.4117 1052.5 69.6649C998.23 84.2922 1059.37 232.549 1009.52 262.253C968.264 286.835 948.774 155.429 902.843 158.836C836.665 163.744 800.743 284.973 734.467 282.655C685.049 280.927 635.944 209.141 637.308 149.548C639.212 66.4141 752.546 19.3414 742.38 -62.916C733.899 -131.534 632.081 -117.276 597.48 -172.703C562.384 -228.921 512.188 -318.406 548.494 -373.494C590.262 -436.873 690.734 -355.449 747.009 -399.594C791.39 -434.408 763.389 -537.931 806.136 -575.599C844.69 -609.572 903.171 -557.565 948.165 -576.846Z" fill="#020079"/>
<path fill-rule="evenodd" clip-rule="evenodd" d="M707.467 -972.127C762.478 -930.5 706.111 -766.539 769.876 -751.68C849.998 -733.009 893.213 -896.328 974.025 -910.011C1033.47 -920.078 1087.73 -860.027 1133.55 -813.259C1185.95 -759.777 1281.55 -697.282 1259.08 -619.062C1229.25 -515.218 1100.08 -515.22 1028.43 -447.308C996.565 -417.11 991.329 -354.573 955.623 -331.456C918.279 -307.279 851.313 -362.997 829.983 -318.829C784.48 -224.606 856.436 -76.5784 794.288 2.62085C754.408 53.4431 679.546 -26.8119 631.21 -65.5201C587.13 -100.821 578.013 -185.828 528.986 -209.837C466.848 -240.268 322.442 -132.846 329.519 -213.266C341.251 -346.606 548.6 -371.237 554.967 -505.105C559.22 -594.517 400.617 -534.651 347.799 -597.615C307.722 -645.389 308.673 -727.165 311.77 -795.016C315.192 -869.991 305.866 -991.516 366.548 -1008.37C452.487 -1032.25 517.119 -885.805 604.969 -876.465C648.376 -871.85 670.558 -1000.06 707.467 -972.127Z" fill="#0A0B27"/>
</g>
<defs>
<filter id="filter0_f_99_360" x="-315" y="-1411" width="2373" height="2235" filterUnits="userSpaceOnUse" color-interpolation-filters="sRGB">
<feFlood flood-opacity="0" result="BackgroundImageFix"/>
<feBlend mode="normal" in="SourceGraphic" in2="BackgroundImageFix" result="shape"/>
<feGaussianBlur stdDeviation="200" result="effect1_foregroundBlur_99_360"/>
</filter>
</defs>
</svg>
